HIERARCHY
ROOT joint_0
{
	OFFSET 0.000000 0.000000 0.000000
	CHANNELS 6 Xposition Yposition Zposition Zrotation Yrotation Xrotation 
	JOINT joint_1
	{
		OFFSET 0.587158 0.057678 95.682007
		CHANNELS 3 Zrotation Yrotation Xrotation
		JOINT joint_2
		{
			OFFSET -7.116699 -0.219910 87.157959
			CHANNELS 3 Zrotation Yrotation Xrotation
			JOINT joint_3
			{
				OFFSET -5.892822 -0.290222 87.151001
				CHANNELS 3 Zrotation Yrotation Xrotation
				JOINT joint_4
				{
					OFFSET 5.544678 -0.099609 123.768066
					CHANNELS 3 Zrotation Yrotation Xrotation
					JOINT joint_5
					{
						OFFSET 41.981201 4.519775 84.257935
						CHANNELS 3 Zrotation Yrotation Xrotation
						End Site
						{
							OFFSET 0.000000 0.000000 0.000000
						}
					}
				}
				JOINT joint_6
				{
					OFFSET 3.940918 -26.976501 69.308105
					CHANNELS 3 Zrotation Yrotation Xrotation
					JOINT joint_7
					{
						OFFSET 4.776123 -152.592468 -16.842041
						CHANNELS 3 Zrotation Yrotation Xrotation
						JOINT joint_8
						{
							OFFSET 54.421875 -30.424072 -248.864014
							CHANNELS 3 Zrotation Yrotation Xrotation
							JOINT joint_9
							{
								OFFSET 42.120117 -33.387878 -236.524963
								CHANNELS 3 Zrotation Yrotation Xrotation
								End Site
								{
									OFFSET 0.000000 0.000000 0.000000
								}
							}
						}
					}
				}
				JOINT joint_10
				{
					OFFSET 2.312012 26.904114 69.425049
					CHANNELS 3 Zrotation Yrotation Xrotation
					JOINT joint_11
					{
						OFFSET 0.971436 152.197815 -20.626953
						CHANNELS 3 Zrotation Yrotation Xrotation
						JOINT joint_12
						{
							OFFSET 49.954102 28.991455 -249.970093
							CHANNELS 3 Zrotation Yrotation Xrotation
							JOINT joint_13
							{
								OFFSET 48.146973 19.598389 -236.919922
								CHANNELS 3 Zrotation Yrotation Xrotation
								End Site
								{
									OFFSET 0.000000 0.000000 0.000000
								}
							}
						}
					}
				}
			}
		}
	}
	JOINT joint_14
	{
		OFFSET 16.305664 -89.442932 -108.224976
		CHANNELS 3 Zrotation Yrotation Xrotation
		JOINT joint_15
		{
			OFFSET -22.282471 13.437134 -412.904968
			CHANNELS 3 Zrotation Yrotation Xrotation
			JOINT joint_16
			{
				OFFSET -45.426025 14.484802 -445.892029
				CHANNELS 3 Zrotation Yrotation Xrotation
				JOINT joint_17
				{
					OFFSET 173.389404 -9.944031 -76.473001
					CHANNELS 3 Zrotation Yrotation Xrotation
					End Site
					{
						OFFSET 0.000000 0.000000 0.000000
					}
				}
			}
		}
	}
	JOINT joint_18
	{
		OFFSET 13.392822 89.408875 -108.653992
		CHANNELS 3 Zrotation Yrotation Xrotation
		JOINT joint_19
		{
			OFFSET -29.032959 24.483521 -411.977966
			CHANNELS 3 Zrotation Yrotation Xrotation
			JOINT joint_20
			{
				OFFSET -30.530029 28.986328 -446.453018
				CHANNELS 3 Zrotation Yrotation Xrotation
				JOINT joint_21
				{
					OFFSET 170.330078 33.400757 -76.698997
					CHANNELS 3 Zrotation Yrotation Xrotation
					End Site
					{
						OFFSET 0.000000 0.000000 0.000000
					}
				}
			}
		}
	}
}
MOTION
Frames: 7
Frame Time: 0.016667
-2318.361328 830.076111 1063.189941 1.613979 1.205257 0.804996 0.230240 -4.049759 -0.711900 0.313353 0.646840 0.186328 0.287559 -0.718485 -0.112315 -0.625987 3.291667 0.889003 0.000000 0.000000 0.000000 -1.006699 1.861850 1.198888 -0.443189 1.734112 -0.914038 2.382178 -11.776510 4.525529 0.000000 0.000000 0.000000 0.950388 1.349418 -0.720227 0.496238 1.273485 0.908779 -2.380374 -9.267363 -7.477226 0.000000 0.000000 0.000000 -1.776125 -4.874240 0.216938 -1.479186 4.302179 0.145030 -1.588125 -1.702851 -0.796491 0.000000 0.000000 0.000000 0.547539 -3.408142 -4.101586 0.482478 0.971754 0.524617 0.504219 0.812795 0.067110 0.000000 0.000000 0.000000 
-2318.260254 829.921021 1063.118042 1.592635 1.244121 0.818832 0.235260 -4.087797 -0.718920 0.319957 0.651463 0.196293 0.292976 -0.721199 -0.119518 -0.622136 3.281553 0.882734 0.000000 0.000000 0.000000 -0.976226 1.899598 1.243933 -0.438814 1.773808 -0.899303 2.288593 -11.306185 4.328899 0.000000 0.000000 0.000000 0.937499 1.417075 -0.800250 0.486141 1.341721 0.878664 -2.255337 -8.624722 -7.155197 0.000000 0.000000 0.000000 -1.773744 -4.917663 0.206885 -1.476094 4.302791 0.145429 -1.583988 -1.653879 -0.791858 0.000000 0.000000 0.000000 0.554812 -3.428456 -4.120764 0.486283 0.942675 0.547848 0.512587 0.830188 0.067461 0.000000 0.000000 0.000000 
-2318.177246 829.748230 1063.038940 1.577759 1.278427 0.829306 0.239646 -4.118138 -0.724088 0.325479 0.655790 0.203718 0.297644 -0.720466 -0.124471 -0.618816 3.271760 0.877419 0.000000 0.000000 0.000000 -0.947996 1.928837 1.293631 -0.432618 1.804280 -0.887563 2.174503 -10.748331 4.079828 0.000000 0.000000 0.000000 0.927246 1.482675 -0.875842 0.477869 1.407631 0.856364 -2.113202 -7.961253 -6.761200 0.000000 0.000000 0.000000 -1.775334 -4.944916 0.204359 -1.477631 4.281135 0.142304 -1.583635 -1.596107 -0.788394 0.000000 0.000000 0.000000 0.560279 -3.450986 -4.132727 0.489724 0.924627 0.568713 0.519306 0.841601 0.068244 0.000000 0.000000 0.000000 
-2318.143555 829.517517 1062.947998 1.579219 1.297141 0.834458 0.245724 -4.135045 -0.738503 0.333178 0.655867 0.209608 0.304693 -0.712171 -0.128481 -0.622183 3.264152 0.885159 0.000000 0.000000 0.000000 -0.945995 1.946442 1.340148 -0.419573 1.820106 -0.857976 2.035742 -10.082265 3.771570 0.000000 0.000000 0.000000 0.844106 1.543509 -0.950180 0.477825 1.479504 0.859209 -1.947826 -7.278255 -6.273103 0.000000 0.000000 0.000000 -1.788924 -4.936466 0.218187 -1.492436 4.216228 0.132177 -1.594116 -1.495933 -0.787282 0.000000 0.000000 0.000000 0.559833 -3.472525 -4.130687 0.489818 0.928001 0.584352 0.520906 0.850494 0.067225 0.000000 0.000000 0.000000 
-2318.127930 829.269226 1062.849976 1.586532 1.311004 0.836175 0.251513 -4.143312 -0.752172 0.340453 0.655189 0.215783 0.311334 -0.700705 -0.132013 -0.626253 3.255764 0.894327 0.000000 0.000000 0.000000 -0.946686 1.955394 1.394937 -0.406110 1.826419 -0.835002 1.875507 -9.328909 3.409784 0.000000 0.000000 0.000000 0.761710 1.602233 -1.022507 0.479637 1.549265 0.872244 -1.765303 -6.574723 -5.710872 0.000000 0.000000 0.000000 -1.806325 -4.911588 0.239509 -1.511724 4.129074 0.118787 -1.608205 -1.386729 -0.787248 0.000000 0.000000 0.000000 0.557887 -3.495896 -4.121316 0.489847 0.942348 0.597477 0.521142 0.853467 0.066756 0.000000 0.000000 0.000000 
-2318.049316 829.087524 1062.759033 1.583279 1.341585 0.837136 0.245298 -4.141295 -0.731635 0.332317 0.650589 0.216104 0.303171 -0.682943 -0.132767 -0.617014 3.236486 0.878048 0.000000 0.000000 0.000000 -0.883881 1.956402 1.496717 -0.410796 1.829578 -0.897732 1.706931 -8.554754 3.020857 0.000000 0.000000 0.000000 0.912418 1.655538 -1.071013 0.465291 1.580065 0.845575 -1.585412 -5.880695 -5.139905 0.000000 0.000000 0.000000 -1.816536 -4.899640 0.255885 -1.523744 4.044529 0.106266 -1.616331 -1.316946 -0.786855 0.000000 0.000000 0.000000 0.560410 -3.524426 -4.117254 0.493046 0.942331 0.614523 0.525346 0.853018 0.068736 0.000000 0.000000 0.000000 
-2318.027832 828.956238 1062.655029 1.587039 1.371100 0.843203 0.234061 -4.155456 -0.668174 0.316433 0.635292 0.223860 0.286236 -0.656415 -0.141508 -0.587952 3.256406 0.817208 0.000000 0.000000 0.000000 -0.595598 1.961690 1.709813 -0.459649 1.857657 -1.140253 1.518367 -7.721151 2.582850 0.000000 0.000000 0.000000 1.517928 1.639087 -1.141472 0.419474 1.474847 0.786804 -1.393203 -5.050339 -4.540588 0.000000 0.000000 0.000000 -1.820939 -4.891260 0.264054 -1.529303 3.977331 0.086702 -1.621604 -1.330695 -0.789992 0.000000 0.000000 0.000000 0.563782 -3.550440 -4.120674 0.496241 0.933800 0.628163 0.529366 0.846227 0.071874 0.000000 0.000000 0.000000 
